<svg width="209" height="33" viewBox="0 0 209 33" fill="none" xmlns="http://www.w3.org/2000/svg">
<path d="M31.12 32L23.584 32.096V9.296L17.824 32H12.016L6.16 9.296V32.096L0.16 32V0.511999H10.96L15.568 19.712L20.512 0.511999H30.976L31.12 32ZM43.4729 31.952H35.4569V0.559999H43.4729V31.952ZM69.769 32H61.369L53.641 12.128V32H47.785V0.559999L56.521 0.511999L63.913 20V0.559999H69.769V32ZM94.5299 23.504C94.5299 29.168 91.2979 32.08 84.8339 32.24C84.8339 32.24 84.3539 32.24 83.3939 32.24C76.8659 32.24 73.6019 29.328 73.6019 23.504V9.008C73.6019 3.216 76.8499 0.319999 83.3459 0.319999H84.7859C91.2819 0.319999 94.5299 3.216 94.5299 9.008V23.504ZM86.5619 23.504V9.008C86.5619 7.408 86.3859 6.32 86.0339 5.744C85.6819 5.168 85.0739 4.88 84.2099 4.88H83.9699C83.0739 4.88 82.4499 5.168 82.0979 5.744C81.7459 6.32 81.5699 7.408 81.5699 9.008V23.504C81.5699 25.104 81.7459 26.192 82.0979 26.768C82.4499 27.344 83.0739 27.632 83.9699 27.632H84.2099C85.0739 27.632 85.6819 27.344 86.0339 26.768C86.3859 26.192 86.5619 25.104 86.5619 23.504ZM113.991 5.168H108.663V32H100.647V5.168H95.2713V0.559999H113.991V5.168ZM136.193 32H127.025L126.065 25.184H119.681L118.817 32H111.953L118.145 0.559999H129.713L136.193 32ZM125.441 20.576L123.281 4.784H122.513L120.305 20.576H125.441ZM159.276 23.504C159.276 29.328 156.028 32.24 149.532 32.24H148.092C141.596 32.24 138.348 29.328 138.348 23.504V0.559999H146.412V23.504C146.412 25.072 146.572 26.16 146.892 26.768C147.212 27.344 147.82 27.632 148.716 27.632H148.956C149.82 27.632 150.412 27.344 150.732 26.768C151.084 26.16 151.26 25.072 151.26 23.504V0.559999H159.276V23.504ZM185.885 32H176.621L172.733 17.936V14.624H173.501C174.589 14.624 175.309 14.304 175.661 13.664C175.885 13.216 175.997 12.416 175.997 11.264V9.2C175.997 7.6 175.789 6.528 175.373 5.984C174.989 5.44 174.253 5.168 173.165 5.168H171.581V32H163.613V0.559999H174.701C181.229 0.559999 184.493 3.376 184.493 9.008V10.736C184.493 13.392 184.093 15.312 183.293 16.496C182.589 17.52 181.405 18.176 179.741 18.464C181.085 21.568 183.133 26.08 185.885 32ZM208.483 23.504C208.483 29.168 205.251 32.08 198.787 32.24C198.787 32.24 198.307 32.24 197.347 32.24C190.819 32.24 187.555 29.328 187.555 23.504V9.008C187.555 3.216 190.803 0.319999 197.299 0.319999H198.739C205.235 0.319999 208.483 3.216 208.483 9.008V23.504ZM200.515 23.504V9.008C200.515 7.408 200.339 6.32 199.987 5.744C199.635 5.168 199.027 4.88 198.163 4.88H197.923C197.027 4.88 196.403 5.168 196.051 5.744C195.699 6.32 195.523 7.408 195.523 9.008V23.504C195.523 25.104 195.699 26.192 196.051 26.768C196.403 27.344 197.027 27.632 197.923 27.632H198.163C199.027 27.632 199.635 27.344 199.987 26.768C200.339 26.192 200.515 25.104 200.515 23.504Z" fill="white"/>
</svg>
