<svg width="1446" height="1446" viewBox="0 0 1446 1446" fill="none" xmlns="http://www.w3.org/2000/svg">
<g clip-path="url(#clip0_36_158)">
<path d="M969.416 1446C957.4 1441.54 944.346 1440.75 931.868 1439.28C881.445 1433.32 831.71 1419.59 780.403 1423.29C750.17 1425.47 720.133 1430.3 689.912 1432.78C676.504 1433.88 669.093 1424.66 664.094 1412.8C658.968 1400.64 654.977 1384.19 637.668 1387.1C615.79 1390.79 609.63 1409.05 607.41 1428.74C607.089 1431.59 606.557 1434.41 606.123 1437.25C603.672 1435.58 600.903 1434.23 598.825 1432.18C566.322 1400.19 569.171 1355.98 613.896 1336.98C681.637 1308.2 719.052 1254.12 756.348 1196.9C771.416 1173.78 792.263 1154.37 822.351 1168.75C853.422 1183.59 847.62 1214.31 841.89 1239.51C826.555 1307 845.567 1374.06 888.788 1392.43C927.768 1409 970.19 1411.37 1010.67 1421.73C1030.01 1426.68 1048.39 1433.76 1064.12 1446H1140.25C1117.96 1433.91 1095.8 1421.52 1072.99 1410.5C1035.95 1392.6 995.26 1387.48 955.571 1378.55C895.273 1364.98 867.817 1303.88 879.848 1236.63C895.645 1148.32 958.517 1100.6 1022.46 1051.59C1078.48 1008.65 1128.42 961.243 1127.42 882.967C1126.78 833.63 1105.24 792.701 1071.15 758.387C1019.81 706.711 1026.35 649.883 1052.49 589.368C1078.5 529.146 1097.72 467.72 1073.94 401.102C1064.49 374.633 1043.01 361.594 1022.51 346.505C986.79 320.228 985.796 294.948 1024.9 274.212C1072.85 248.781 1094.76 210.845 1104.49 159.013C1116.63 94.3298 1170.78 73.7858 1234.01 104.206C1278.46 125.592 1314.45 161.128 1360.95 178.805C1389.57 189.686 1417.92 189.553 1446 178.805V136.614C1362.39 176.6 1303.96 124.891 1244.73 76.6452C1208.78 47.3601 1169.7 34.3172 1122.63 44.6778C1106.76 48.1699 1078.17 53.2056 1078.01 27.1233C1077.84 1.21464 1102.5 3.04383 1121.77 0H1019.8C1022.47 44.1645 1042.38 84.3958 1049.52 127.573C1059.43 187.514 1028.76 227.788 985.265 261.787C970.45 273.366 955.347 284.84 939.206 294.384C922.017 304.549 899.499 315.947 887.493 292.378C875.108 268.067 899.676 257.374 916.703 248.181C949.556 230.438 990.586 224.152 1001.36 178.682C1012.2 132.891 995.426 90.845 986.696 47.5626C983.522 31.8337 981.465 15.8807 979.032 0H939.98C945.424 16.5459 950.98 33.0592 956.196 49.6773C970.006 93.6647 988.583 138.686 952.039 180.099C927.577 207.819 891.705 223.888 870.015 254.706C840.3 296.929 809.384 337.106 759.154 357.148C747.513 361.793 730.949 366.474 731.882 381.845C732.894 398.507 749.527 405.401 762.769 412.663C803.499 434.993 849.767 428.208 893.075 437.05C915.253 441.576 938.299 447.403 946.414 471.964C952.603 490.693 940.822 506.042 926.741 515.589C898.975 534.416 870.102 551.902 840.43 567.562C768.704 605.422 705.084 651.676 669.368 727.544C659.799 747.868 652.135 770.263 664.994 792.108C672.047 804.088 685.129 808.614 698.996 806.767C724.497 803.369 745.059 788.822 766.044 775.443C809.601 747.672 852.056 714.324 905.21 711.143C961.98 707.748 1004.12 747.354 1049.41 774.326C1087.78 797.18 1111.1 832.668 1103.82 879.345C1090.42 965.339 1036.9 1024.34 967.107 1070.25C945.026 1084.77 919.519 1098.15 892.901 1084.06C868.356 1071.06 871.819 1045.12 876.572 1023.39C886.745 976.907 869.585 949.259 829.444 923.925C777.912 891.405 776.918 864.083 818.863 827.343C849.283 800.701 884.652 772.912 926.702 780.305C991.179 791.642 1024.71 841.89 1025.56 911.699C1025.68 920.683 1023.69 932.699 1035.44 936.676C1039.16 937.934 1046.41 934.427 1049.5 930.881C1061.79 916.732 1066.65 899.329 1067.89 880.903C1071.36 829.505 1035.48 806.391 997.711 786.357C968.126 770.664 941.303 743.761 904.393 749.856C855.613 757.914 822.243 797.173 778.866 816.965C741.068 834.212 735.642 858.046 761.923 890.472C773.773 905.091 788.439 918.167 803.889 928.99C863.895 971.025 870.937 1000.43 831.464 1054.21C811.014 1082.06 784.491 1107.04 770.57 1137.79C738.657 1208.29 694.521 1260.23 618.747 1287.68C537.858 1316.99 514.711 1391.41 562.476 1446H969.42L969.416 1446ZM734.839 759.132C724.247 769.579 706.277 784.357 694.611 769.109C677.849 747.202 700.081 729.377 713.626 714.776C771.282 652.63 844.554 610.534 912.726 561.822C939.672 542.568 964.735 519.36 972.692 485.444C979.99 454.34 954.454 444.265 933.107 432.585C926.745 429.104 915.922 428.052 917.046 419.459C917.455 416.336 930.837 413.133 938.346 413.017C979.228 412.388 1005.38 437.057 1005.38 486.662C1001.75 534.416 964.077 572.855 919.833 603.181C852.764 649.16 792.473 702.29 734.836 759.132H734.839ZM848.672 701.104C846.619 701.744 844.41 701.892 842.273 702.268C843.032 699.991 843.34 697.413 844.623 695.486C871.963 654.355 917.057 634.863 954.83 606.818C1011.3 564.887 1045.01 484.555 1020.94 437.111C1002.92 401.583 972.478 386.856 928.028 386.928C905.615 386.668 879.511 395.951 853.003 403.51C841.749 406.72 826.664 413.462 820.356 400.343C814.206 387.55 828.384 379.897 838.405 374.561C916.619 332.895 1036.45 343.946 1061.07 445.607C1075.72 506.046 1048.32 556.623 1011.64 601.532C969.294 653.382 911.313 681.54 848.675 701.108L848.672 701.104Z" fill="#1043CF" fill-opacity="0.15"/>
<path d="M897.605 0H868.229C886.619 22.2973 900.902 46.4781 904.618 76.3127C909.245 113.464 901.198 147.741 874.201 173.036C826.27 217.941 795.958 278.745 742.308 317.954C702.149 347.3 658.932 339.676 618.274 320.806C569.956 298.378 524.165 302.51 477.766 323.915C474.874 325.249 471.512 325.563 468.371 326.355C469.213 323.105 469.611 319.653 470.966 316.634C487.118 280.708 550.482 266.621 598.901 287.392C647.4 308.204 695.942 335.32 747.037 293.162C781.889 264.405 802.22 224.181 829.296 189.271C849.876 162.733 878.445 140.367 879.953 103.563C881.959 54.6516 855.729 22.8649 816.784 0.003615H621.267C639.736 6.38409 658.14 12.9995 676.906 18.3425C712.448 28.4645 747.774 12.6814 783.273 15.8699C817.956 18.9824 843.597 37.4514 860.255 67.4704C870.489 85.9069 870.163 105.037 857.749 123.246C852.876 130.393 846.521 134.8 838.243 133.556C828.341 132.07 824.285 123.799 822.12 114.997C807.443 55.3565 790.312 42.7944 731.141 59.1956C692.501 69.9069 663.859 49.7388 632.719 37.0574C565.043 9.49661 498.18 52.6561 497.869 125.336C497.793 142.868 496.658 160.445 495.017 177.909C493.871 190.073 491.499 204.052 474.802 201.699C459.539 199.548 453.911 185.435 454.377 172.692C456.969 102.229 470.485 20.3524 553.179 0.00723H491.749C449.059 54.0081 430.793 115.973 437.488 184.528C439.993 210.151 454.099 234.125 484.356 229.683C517.115 224.871 512.792 193.572 516.259 170.042C522.538 127.436 516.465 79.2842 564.653 55.4035C596.475 39.6312 626.856 50.4654 652.685 70.2611C674.964 87.3348 696.394 93.6972 725.263 90.6642C789.068 83.962 811.937 115.669 796.468 182.8C782.344 244.099 732.587 296.828 688.683 295.884C655.91 295.179 631.852 272.123 603.25 260.681C547.481 238.369 502.55 262.521 460.259 296.112C396.016 347.134 327.212 388.222 243.055 395.561C235.243 396.24 225.956 395.083 224.174 386.436C222.182 376.763 231.848 374.069 238.977 371.546C278.218 357.672 319.339 348.988 355.995 328.014C410.892 296.604 417.027 248.716 407.772 191.429C396.855 123.857 412.172 59.586 446.117 0.01446H413.82C387.807 64.9507 391.646 133.784 388.396 201.76C386.505 241.337 377.96 279.349 349.191 308.876C289.699 369.937 200.275 367.371 134.193 304.557C125.206 296.014 113.385 278.763 100.194 289.804C86.8544 300.97 100.168 315.181 108.288 326.398C113.83 334.059 119.31 341.874 125.719 348.779C159.758 385.446 190.229 428.406 249.497 422.666C285.47 419.181 313.555 396.905 344.582 381.842C411.745 349.234 479.508 391.295 479.508 466.165C479.508 558.752 384.665 624.039 289.056 604.041C222.898 590.203 164.295 556.262 98.6249 542.507C61.6579 534.763 17.15 560.029 7.93898 596.981C0.224574 627.933 21.7664 654.131 61.3868 664.824C117.586 679.992 169.974 701.306 206.984 750.575C245.896 802.378 259.796 804.15 314.798 765.859C360.488 734.055 407.451 719.591 462.54 739.69C512.922 758.073 533.846 744.567 534.326 691.029C534.944 622.311 566.608 578.176 629.332 553.832C683.286 532.894 711.537 481.963 697.992 426.845C690.765 397.44 667.192 385.927 639.667 392.202C615.111 397.802 624.116 419.781 627.561 435.879C636.913 479.58 633.641 518.626 593.518 546.986C568.13 564.93 544.119 584.282 532.074 614.554C522.899 637.617 513.124 660.58 495.715 678.792C457.294 718.984 405.379 712.224 357.155 717.082C254.384 727.432 169.439 678.785 84.2372 632.123C67.6407 623.034 47.8088 610.02 61.0976 588.095C73.6994 567.309 95.6642 574.279 112.926 584.643C170.469 619.184 226.361 655.559 294.449 668.862C352.618 680.227 411.521 665.872 438.518 629.028C490.462 558.134 503.942 477.914 501.133 392.506C499.409 340.114 529.526 316.468 579.225 333.129C658.816 359.819 731.398 357.972 791.555 291.412C822.702 256.954 847.045 216.249 885.126 188.175C918.402 163.644 933.907 132.32 927.429 90.2991C922.505 58.3569 909.263 29.5056 897.59 0.00723L897.605 0Z" fill="#1043CF" fill-opacity="0.15"/>
<path d="M1300.53 1365.09C1230.39 1302.73 1193.34 1239.37 1251.24 1154.36C1282.52 1108.44 1352.51 1092.77 1421.35 1116C1429.41 1118.72 1437.73 1120.68 1446 1122.77V1045.6C1412.21 1051.81 1378.29 1057.42 1344.72 1064.63C1256.43 1083.59 1188.81 1148.51 1181.72 1234.6C1175.89 1305.36 1222.82 1351.28 1278.9 1387.81C1294.55 1397.99 1317.15 1408.23 1307.88 1433.04C1304.98 1440.79 1299.64 1444.51 1293.31 1446H1341.26C1349.27 1409.39 1324.41 1386.32 1300.54 1365.09H1300.53Z" fill="#1043CF" fill-opacity="0.15"/>
<path d="M998.969 1329.99C1068.19 1353.89 1125.48 1400.08 1191.11 1430.47C1202.8 1435.88 1214.65 1440.94 1226.51 1446H1275.41C1272.89 1445.62 1270.41 1445.16 1268.03 1444.69C1208.98 1433.07 1162.2 1400.95 1120.96 1357.9C1054.82 1288.84 1069.18 1137.31 1147.3 1082.72C1190.69 1052.39 1232.88 1020.23 1274.28 987.21C1286.48 977.478 1297.83 957.917 1283.5 945.89C1268.65 933.426 1262.43 955.383 1253.59 964.435C1237.48 980.93 1222.8 999.667 1204.21 1012.75C1132.45 1063.27 1067.8 1118.37 1050.04 1210.86C1046.91 1227.19 1039.79 1244.17 1019.01 1238.63C1002.92 1234.34 1001.99 1217.94 1004.9 1203.82C1020.8 1126.53 1072.18 1074.5 1130.63 1027.33C1163.97 1000.42 1204.5 979.77 1220.43 936.285C1233.57 900.424 1214.89 865.525 1213.22 829.946C1211.85 800.52 1217.51 767.989 1198.31 743.107C1184.01 724.558 1159.01 714.104 1145.38 695.251C1108.79 644.634 1121.29 587.564 1135.03 533.513C1150.17 474.002 1163.67 415.956 1149.41 353.959C1136.09 296.058 1136.89 238.015 1163.52 182.879C1168.15 173.289 1175.37 164.37 1187.44 166.926C1199.92 169.569 1201.54 180.645 1201.49 191.534C1201.27 236.269 1187.85 279.862 1192.45 325.299C1196.77 367.964 1225.26 399.356 1257.73 391.638C1314.17 378.223 1376.46 407.624 1396.56 461.599C1416.52 515.163 1405.37 573.682 1417.51 628.869C1423.22 654.879 1427.06 681.641 1446 701.841V616.907C1435.5 588.363 1432.98 558.037 1432.36 528.231C1430.43 434.375 1387.95 373.824 1297.28 345.33C1239.24 327.092 1219.51 288.072 1223.13 209.453C1224.41 181.495 1233.62 148.515 1195.94 140.732C1161.11 133.538 1151.8 165.874 1141.5 190.641C1126.95 225.634 1104.86 254.557 1079.14 282.125C1053.05 310.087 1080.56 330.422 1095.02 350.829C1142.95 418.48 1135.79 491.821 1104.38 559.295C1068.09 637.238 1083.74 695.132 1140.08 755.058C1197.14 815.739 1204.28 910.835 1161.13 968.914C1127.44 1014.26 1074.89 1040.19 1035.61 1080.21C988.818 1127.86 933.744 1171.44 925.176 1243.51C919.056 1295 958.253 1315.93 998.969 1329.99Z" fill="#1043CF" fill-opacity="0.15"/>
<path d="M891.072 481.623C890.338 477.899 883.416 473.655 878.705 472.73C839.157 464.958 798 466.331 759.869 450.035C746.299 444.233 739.448 454.174 738.364 466.349C733.082 525.487 706.881 567.732 648.177 588.001C613.892 599.837 579.821 617.07 571.759 656.686C566.12 684.392 568.271 713.767 567.747 742.413C567.081 778.993 548.02 796.406 512.766 789.606C481.583 783.587 451.047 771.369 419.748 769.359C352.459 765.039 311.479 810.653 273.905 857.373C256.105 879.504 259.17 904.419 281.721 923.745C296.611 936.509 312.549 931.86 326.698 921.756C343.588 909.697 357.871 892.272 376.35 884.431C472.412 843.665 565.686 863.179 651.383 911.855C727.699 955.202 744.336 1014.2 709.577 1072.4C677.404 1126.27 622.105 1141.8 567.935 1159.98C495.515 1184.29 432.003 1218.22 412.406 1301.78C401.836 1346.86 379.138 1384.78 328.831 1392.62C283.358 1399.71 254.557 1369.55 226.075 1339.82C201.992 1314.69 179.655 1286.37 145.587 1273.87C86.1238 1252.06 41.9774 1281.82 0 1317.46V1369.36C12.4464 1351.19 23.906 1332.2 42.6462 1319.27C98.1906 1280.94 145.641 1290.02 187.564 1344.44C215.993 1381.35 246.525 1416.63 283.007 1446.01H419.474C399.255 1360.94 437.325 1295.26 495.32 1237.97C532.352 1201.39 583.703 1187.94 628.573 1163.97C688.072 1132.19 738.255 1091.38 751.537 1020.28C761.279 968.148 724.309 942.77 689.211 916.464C663.808 897.424 631.363 884.168 625.767 847.146C624.878 841.261 628.077 834.758 629.386 828.54C632.318 829.946 636.016 830.658 638.033 832.892C642.642 837.997 646.199 844.037 650.592 849.362C678.293 882.949 713.738 907.77 747.199 934.864C792.943 971.904 791.537 1016.69 755 1081.05C707.184 1165.27 627.625 1207.18 548.244 1250.64C489.883 1282.6 435.564 1372.73 467.647 1446.01H512.936C472.119 1361.03 517.523 1271.55 601.391 1243.06C638.301 1230.53 678.926 1224.25 704.202 1189.06C733.635 1148.09 749.512 1098.67 784.878 1061.24C801.623 1043.52 819.517 1024.58 816.618 997.379C812.786 961.431 781.295 946.891 757.906 926.564C714.646 888.965 662.022 857.829 643.875 800.122C619.416 722.346 660.826 662.955 709.784 608.661C756.056 557.346 821.389 535.287 878.669 500.865C885.664 496.661 892.84 490.592 891.072 481.637V481.623ZM655.967 650.696C632.303 693.531 623.924 740.207 616.78 787.972C608.311 844.591 566.275 870.991 510.499 848.075C436.584 817.709 375.096 826.096 320.144 884.218C313.927 890.794 300.989 900.395 295.609 890.87C286.315 874.411 300.739 860.453 311.024 848.571C363.467 787.976 425.214 777.995 498.621 809.46C526.814 821.545 566.145 838.38 583.374 791.891C592.177 768.141 591.28 740.789 594.769 715.069C596.258 684.294 594.324 652.016 619.13 628.262C629.639 618.198 643.803 608.444 657.341 617.196C670.626 625.782 661.802 640.137 655.967 650.696Z" fill="#1043CF" fill-opacity="0.15"/>
<path d="M677.664 1016.65C667.958 1007.3 655.334 1032.45 645.223 1043.27C623.472 1066.54 598.286 1080.01 566.886 1067C537.449 1054.81 508.858 1047.62 477.664 1059.67C413.458 1084.47 358.456 1129.03 287.989 1141.51C227.734 1152.18 158.583 1119.03 139.835 1060.81C125.137 1015.17 137.11 966.459 125.672 920.198C107.384 846.235 73.0085 784.809 0 752.99V787.336C55.183 814.413 80.2602 864.625 94.1346 920.44C112.904 995.936 123.716 1073.43 99.2173 1149.38C84.1861 1195.98 44.6597 1220.18 0 1235.42V1265.03C102.558 1188.49 183.396 1213.64 259.365 1301.2C299.477 1347.44 341.278 1347.61 363.795 1290.87C397.48 1205.99 449.681 1144.31 539.868 1118.47C583.049 1106.1 631.598 1105.31 664.31 1067.65C677.133 1052.89 693.075 1031.5 677.668 1016.65L677.664 1016.65ZM514.805 1101.93C455.526 1133.08 409.464 1182.93 352.141 1216.69C331.683 1228.73 309.111 1234.67 282.353 1234.81C243.788 1233.33 206.644 1218.57 172.642 1195.74C165.372 1190.86 155.297 1183.52 161.182 1172.37C168.958 1157.64 183.385 1159.28 195.684 1164.32C287.201 1201.89 359.089 1158.55 430.29 1109.25C454.286 1092.64 479.165 1075.9 511.063 1078.55C517.82 1079.11 523.958 1082.19 523.915 1087.65C523.875 1092.55 519.313 1099.57 514.801 1101.94L514.805 1101.93Z" fill="#1043CF" fill-opacity="0.15"/>
<path d="M612.544 932.037C543.374 902.521 470.275 913.181 398.398 918.767C383.765 919.902 368.39 933.447 371.26 951.106C373.162 962.797 388.97 960.993 398.25 958.745C450.324 946.121 502.727 938.27 556.142 946.725C571.976 949.23 596.352 947.365 596.298 969.915C596.24 993.391 573.133 991.609 556.558 990.141C507.546 985.807 459.239 980.453 410.733 997.259C309.017 1032.5 249.204 1006.47 223.935 901.83C194.086 778.219 118.471 713.847 0 690.924V710.64C0.806145 710.767 1.60506 710.926 2.37506 711.172C102.232 742.987 181.954 860.948 187.018 982.127C188.638 1020.87 195.929 1059.6 233.247 1080.96C275.94 1105.39 315.944 1086.93 351.974 1064.04C418.725 1021.62 483.513 981.415 568.495 1016.13C591.526 1025.53 621.234 1014.64 633.677 987.737C644.388 964.569 633.934 941.162 612.544 932.034V932.037Z" fill="#1043CF" fill-opacity="0.15"/>
<path d="M429.56 419.141C411.358 392.622 373.202 389.361 339.976 412.934C312.878 432.159 290.245 458.772 253.722 461.147C196.435 464.871 159.826 429.52 123.575 392.976C74.2919 343.295 59.8969 340.338 0 370.96V419.34C56.8097 391.147 99.0329 427.311 144.307 453.729C224.694 500.638 276.504 495.056 354.964 434.469C365.921 426.006 380.819 414.178 392.079 427.015C405.708 442.556 394.068 460.226 381.997 472.097C327.841 525.372 262.037 526.742 192.669 513.489C146.115 504.596 108.927 473.243 63.5372 462.138C40.2386 456.437 19.8427 464.372 0.003615 474.776V519.215C22.16 501.166 46.8793 486.467 75.9403 495.382C122.364 509.625 166.536 531.528 213.234 544.509C277.972 562.505 344.054 576.311 405.91 532.345C440.661 507.644 452.652 452.775 429.563 419.138L429.56 419.141Z" fill="#1043CF" fill-opacity="0.15"/>
<path d="M1446 757.885C1436.75 747.806 1426.97 738.067 1419.73 726.705C1381.61 666.881 1380.48 597.841 1373.71 530.516C1367.55 469.241 1316.29 426.678 1256.96 435.488C1206.51 442.979 1169.25 493.082 1167.1 553.164C1165.73 591.515 1157.52 630.467 1181.83 664.968C1194.92 683.553 1222.64 684.07 1234.11 704.788C1250.77 734.857 1240.41 767.793 1242.53 799.385C1245.31 840.827 1256.66 877.798 1292.9 902.163C1346.32 938.082 1382.03 933.306 1446 881.29V757.885ZM1384.89 903.978C1345.86 914.519 1315.78 897.225 1292.69 866.91C1272.15 839.942 1268.67 807.703 1268.38 774.969C1268.24 737.934 1279.18 697.399 1244.53 669.451C1224.81 653.549 1196.42 650.122 1187.58 619.369C1169.61 556.891 1203.12 481.377 1258.18 466.194C1301.29 454.304 1341.2 489.156 1355.17 549.202C1369.73 611.799 1362.97 679.215 1396.44 737.438C1412.57 765.494 1434.74 790.89 1435.82 825.261C1437.01 862.796 1424.26 893.342 1384.89 903.978Z" fill="#1043CF" fill-opacity="0.15"/>
<path d="M295.15 -4.71095e-05H234.248C222.572 21.9755 209.597 43.4161 200.22 66.3352C184.274 105.319 196.366 136.535 231.389 159.747C244.771 168.614 261.194 176.365 261.523 195.705C261.606 200.513 256.079 208.484 251.618 209.778C230.995 215.772 214.206 205.448 200.488 191.989C145.062 137.619 136.028 70.3081 173.925 2.63529C174.398 1.78938 174.792 0.903703 175.157 -4.71095e-05H147.712C120.184 59.0401 133.52 154.595 177.735 202.046C199.555 225.464 225.355 244.32 259.267 230.066C288.336 217.851 289.912 189.397 288.708 162.964C286.221 108.36 282.541 53.8598 295.15 -0.00366211V-4.71095e-05Z" fill="#1043CF" fill-opacity="0.15"/>
<path d="M1446 226.577C1399.87 250.458 1361.64 230.066 1322.58 203.134C1306.4 191.978 1284.79 158.608 1264.91 191.66C1249.45 217.366 1257.79 250.125 1279.21 274.726C1307.21 306.881 1349.4 315.344 1384.38 335.895C1408.1 349.834 1427.75 367.993 1446 387.94V226.574L1446 226.577Z" fill="#1043CF" fill-opacity="0.15"/>
<path d="M371.463 0H343.064C341.549 4.38861 339.991 8.76276 338.856 13.2454C323.232 75.145 335.967 138.971 326.138 201.327C319.422 243.926 286.944 284.302 248.184 291.094C213.039 297.251 183.143 282.563 164.042 253.524C113.417 176.546 89.1207 92.5368 102.25 0H72.2893C71.2662 5.21283 69.9937 10.4437 70.3733 15.5517C77.1948 107.922 105.009 195.846 153.327 272.488C192.459 334.557 263.512 353.225 320.64 283.723C358.142 238.102 362.773 183.996 363.232 128.119C363.582 85.314 357.748 41.8906 371.463 0Z" fill="#1043CF" fill-opacity="0.15"/>
<path d="M1193.76 1364.79C1121.72 1276.51 1126.98 1180.72 1206.59 1099.63C1272.74 1032.24 1360.35 1016.86 1446 996.124V933.91C1358.86 962.053 1290.94 1022.81 1216.14 1071.74C1089.68 1154.46 1087.36 1310.56 1210.63 1394.4C1214.69 1397.16 1219.28 1399.12 1223.63 1401.45C1220.8 1397.8 1218.06 1394.07 1215.12 1390.5C1208.05 1381.9 1200.81 1373.42 1193.77 1364.79H1193.76Z" fill="#1043CF" fill-opacity="0.15"/>
<path d="M1306.81 1310.74C1350.29 1345.32 1389.22 1384.1 1382.9 1446H1422.35C1413.16 1381.27 1376.39 1334.04 1325.47 1294.68C1299.44 1274.54 1282.31 1247.28 1292.15 1212.61C1302.01 1177.9 1328.56 1163.88 1363.5 1165.62C1395.28 1167.2 1419.49 1186.88 1446 1201.02V1166.25C1431.44 1160.95 1416.6 1156.21 1402.73 1149.49C1355 1126.33 1301.42 1138.5 1277.07 1179.03C1251.16 1222.12 1265.59 1277.97 1306.81 1310.74Z" fill="#1043CF" fill-opacity="0.15"/>
<path d="M55.8771 936.075C48.8278 898.591 34.2847 863.638 0 841.897V892.721C28.92 930.899 32.394 976.194 33.0917 1022.03C33.5725 1053.69 24.253 1081.58 0 1102.64V1179.85C21.5237 1171.72 35.9186 1155.2 45.7876 1135.32C77.9105 1070.63 68.45 1002.94 55.8771 936.072V936.075Z" fill="#1043CF" fill-opacity="0.15"/>
<path d="M78.2319 168.896C64.7407 112.56 31.9708 60.6886 37.086 0H15.5153C9.75659 42.0027 28.5546 78.9624 41.3878 117.032C63.0055 181.155 48.9793 236.848 -0.00390625 278.695V322.368C52.9739 310.933 93.0281 230.709 78.2283 168.896H78.2319Z" fill="#1043CF" fill-opacity="0.15"/>
<path d="M49.0052 1446C58.2343 1408.04 78.3373 1379.3 122.429 1381.23C160.969 1382.93 177.724 1419.52 202.314 1442.96C203.319 1443.92 204.262 1444.94 205.177 1446H230.858C219.583 1431.92 208.553 1417.61 196.501 1404.22C171.608 1376.58 151.921 1339.89 109.715 1336.82C53.542 1332.73 29.5601 1390.01 16.3545 1446H49.0052Z" fill="#1043CF" fill-opacity="0.15"/>
<path d="M1446 29.3285C1428 41.5653 1412.01 57.0809 1389.93 62.6986C1342.92 74.6606 1309.02 50.7582 1276.67 22.0081C1268.18 14.46 1259.38 7.26977 1250.64 0H1175.53C1210.02 5.36105 1238.64 24.347 1266.18 45.6249C1320.64 87.6854 1375.43 127.302 1446 84.7103V29.3285Z" fill="#1043CF" fill-opacity="0.15"/>
<path d="M1316.41 0C1330.37 14.5251 1345.3 28.0596 1366.63 29.6322C1390.03 31.3601 1404.06 16.1699 1417.02 0H1316.41Z" fill="#1043CF" fill-opacity="0.15"/>
<path d="M14.1997 134.879C11.8427 116.913 9.87979 98.2521 0 82.2738V224.029C0.17352 223.855 0.33258 223.675 0.451875 223.468C16.9037 195.825 18.1979 165.383 14.1997 134.879Z" fill="#1043CF" fill-opacity="0.15"/>
<path d="M158.489 1446C150.2 1432.83 139.384 1421.8 123.276 1421.2C106.654 1420.58 96.9077 1431.71 91.1201 1446H158.489Z" fill="#1043CF" fill-opacity="0.15"/>
<path d="M984.061 920.925C980.692 948.034 982.842 984.643 945.109 999.302C920.867 1008.72 926.318 985.738 924.453 973.274C919.475 939.965 899.835 916.952 873.76 897.933C864.176 890.942 848.516 885.632 851.22 871.743C854.933 852.677 873.087 844.478 889.543 838.507C947.885 817.333 984.061 847.197 984.061 920.925Z" fill="#1043CF" fill-opacity="0.15"/>
<path d="M593.244 466.917C594.375 496.441 585.735 519.804 554.021 528.126C534.417 533.27 530.729 519.222 531.037 505.699C531.926 466.129 534.03 426.566 536.68 387.069C537.33 377.366 540.28 365.321 552.864 364.703C570.899 363.817 575.179 379.886 579.998 392.441C589.133 416.238 593.529 441.236 593.244 466.917Z" fill="#1043CF" fill-opacity="0.15"/>
<path d="M677.173 258.472C644.11 237.878 602.566 218.389 569.316 189.375C539.716 163.546 548.743 101.198 578.487 88.9001C607.125 77.061 625.431 99.9331 645.1 114.4C667.828 131.116 691.264 137.717 719.877 132.913C759.945 126.182 770.328 140.425 757.751 185.059C747.398 221.802 725.859 249.388 677.173 258.476V258.472Z" fill="#1043CF" fill-opacity="0.15"/>
<path d="M735.06 1389.33C705.106 1387.64 701.415 1372.09 713.062 1349.73C728.997 1319.14 745.587 1288.87 762.733 1258.94C767.906 1249.91 775.013 1238.64 787.188 1241.46C801.5 1244.77 806.561 1259.43 805.773 1271.48C803.694 1303.29 806.145 1336.83 784.983 1364.29C772.348 1380.69 754.266 1387.44 735.06 1389.32V1389.33Z" fill="#1043CF" fill-opacity="0.15"/>
<path d="M1306.64 764.934C1307.6 719.931 1314.85 673.619 1279.27 636.388C1263.46 619.853 1235.39 618.241 1225.95 594.856C1213.95 565.111 1235.36 525.035 1270.09 519.407C1308.42 513.196 1311.66 548.902 1318.88 573.325C1337.39 635.976 1331.1 704.607 1363.61 764.066C1375.26 785.381 1392.02 804.356 1395.91 829.183C1398.15 843.43 1393.85 857.362 1378.51 862.113C1351.14 870.59 1334.44 854.365 1320.96 833.666C1307.32 812.732 1305.37 789.104 1306.64 764.934H1306.64Z" fill="#1043CF" fill-opacity="0.15"/>
</g>
<defs>
<clipPath id="clip0_36_158">
<rect width="1446" height="1446" fill="white"/>
</clipPath>
</defs>
</svg>
