<svg width="61" height="31" viewBox="0 0 61 31" fill="none" xmlns="http://www.w3.org/2000/svg">
<path d="M11.2778 10.3435C10.8217 10.6475 10.5177 10.9516 9.90961 11.2556C8.38932 12.0158 6.86898 12.4719 5.50072 13.3841C2.76419 15.2084 2.76415 17.4888 5.65271 19.0091C8.54127 20.5294 11.5819 21.5936 14.7745 22.2018C18.7272 22.9619 22.68 23.266 26.7848 23.7221C28.4572 23.8741 30.1295 23.7221 31.9539 23.7221C31.9539 22.5058 32.1059 21.2896 32.1059 19.7693C33.9302 21.8977 35.4505 23.7221 37.1228 25.5464C35.7546 26.9147 34.0823 28.587 32.1059 30.7154C32.1059 29.1951 31.9539 28.1309 31.9539 27.0667C27.545 26.7626 23.1361 26.4586 18.8793 26.0025C13.8623 25.3944 8.99738 24.4822 4.43649 22.0497C2.46011 20.9855 0.179688 19.7693 0.179688 17.1848C0.179688 14.4483 2.46011 13.232 4.43649 12.1678C6.41288 11.1036 8.54135 10.4955 10.6698 9.58331C10.9738 9.88737 11.1258 10.1914 11.2778 10.3435Z" fill="#1043CF"/>
<path d="M40.0112 26.3065C39.7071 23.2659 39.707 23.4179 42.1395 22.9618C46.0923 22.0496 50.0451 20.9854 53.8458 19.7692C55.5181 19.3131 57.1905 18.0969 57.1905 16.1205C57.1905 14.1441 55.3662 13.384 53.9979 12.6238C52.9337 12.0157 51.8694 11.7116 50.8052 11.2555C50.3491 11.1035 50.0451 10.6474 49.8931 10.0393C53.5418 10.7995 56.8864 11.7116 59.6229 14.4482C61.2952 16.1205 61.2952 18.0969 59.6229 19.7692C58.7107 20.6814 57.6466 21.4415 56.4303 22.0496C51.4133 24.6341 45.7883 25.5463 40.0112 26.3065Z" fill="#1043CF"/>
<path d="M50.3498 0.765533C48.8295 0.765533 47.6133 1.98177 47.6133 3.50206C47.6133 5.02236 48.8295 6.2386 50.3498 6.2386C51.8701 6.2386 53.0863 5.02236 53.0863 3.50206C53.0863 1.98177 51.8701 0.765533 50.3498 0.765533ZM50.3498 4.56627C49.7417 4.56627 49.1336 4.11018 49.1336 3.35004C49.1336 2.74192 49.5896 2.1338 50.3498 2.1338C50.9579 2.1338 51.566 2.58989 51.566 3.35004C51.566 4.11018 50.9579 4.56627 50.3498 4.56627Z" fill="#1043CF"/>
<path d="M23.1361 12.3194C23.1361 14.9039 21.1597 16.8803 18.4232 16.8803C15.8387 16.8803 13.8623 15.0559 13.8623 12.4714H16.1427C16.2948 13.8397 17.2069 14.7519 18.5752 14.7519C19.9434 14.7519 21.0077 13.6877 21.0077 12.1674C21.0077 10.6471 19.9435 9.73491 18.2712 9.73491H16.5988V9.27882L19.4874 4.86997H14.3184V2.89359H22.8321V3.34967L19.7915 8.06259C21.6158 8.51868 23.1361 10.191 23.1361 12.3194Z" fill="#1043CF"/>
<path d="M35.1462 12.1676C35.1462 14.9042 33.0178 17.0326 30.1293 17.0326C27.0887 17.0326 25.1123 15.0562 25.1123 12.1676C25.1123 10.9514 25.5684 9.43109 26.6326 7.60673L29.3691 2.74179H31.8015C30.1292 5.63035 29.5212 6.84659 28.913 7.91079C29.5212 7.75876 29.9772 7.60673 30.5853 7.60673C33.0178 7.60673 35.1462 9.43109 35.1462 12.1676ZM32.8658 12.1676C32.8658 10.4953 31.6496 9.43109 30.1293 9.43109C28.4569 9.43109 27.3927 10.4953 27.3927 12.1676C27.3927 13.6879 28.609 14.9042 30.1293 14.9042C31.6496 14.9042 32.8658 13.6879 32.8658 12.1676Z" fill="#1043CF"/>
<path d="M36.667 9.7352C36.667 5.32634 38.7954 2.58981 42.14 2.58981C45.4847 2.58981 47.6131 5.32634 47.6131 9.7352C47.6131 14.1441 45.4847 16.8806 42.14 16.8806C38.7954 16.8806 36.667 14.1441 36.667 9.7352ZM45.3327 9.7352C45.3327 6.54258 44.1164 4.71823 42.14 4.71823C40.1636 4.71823 38.9474 6.54258 38.9474 9.7352C38.9474 12.9278 40.1636 14.7522 42.14 14.7522C44.1164 14.9042 45.3327 12.9278 45.3327 9.7352Z" fill="#1043CF"/>
</svg>
