<svg width="62" height="62" viewBox="0 0 62 62" fill="none" xmlns="http://www.w3.org/2000/svg">
<path d="M59.5751 2.22849C58.663 2.22849 57.5988 2.22849 56.6866 2.22849C50.4534 2.53255 44.5242 3.90081 38.8991 6.63734C32.0578 9.82996 26.2807 14.3908 21.7198 20.472C18.5272 24.5768 16.2467 29.1377 14.5744 34.0027C14.4224 34.3067 14.5744 34.4587 14.7265 34.6108C16.0947 35.979 17.463 37.3473 18.8312 38.7156C18.9833 38.8676 19.1353 39.1717 19.1353 39.4757C19.1353 39.7798 18.9833 40.0838 18.6792 40.2359C18.3752 40.3879 17.9191 40.3879 17.767 40.0838C17.0069 39.3237 16.3988 38.7156 15.6386 37.9554C14.7265 37.0432 13.9663 36.1311 13.0541 35.3709C12.7501 35.0669 12.598 34.6108 12.7501 34.1547C14.7265 28.2255 17.615 22.7525 21.7198 17.8875C25.8246 12.8706 30.8416 8.91778 36.4667 6.02922C41.6357 3.29269 47.2608 1.62037 53.0379 0.860222C55.4704 0.556163 57.9028 0.404133 60.3353 0.556163C61.0954 0.556163 61.2475 0.860222 61.3995 1.62037C61.7036 11.5023 59.2711 20.6241 53.9501 29.1377C48.629 37.4993 41.3316 43.7325 32.2098 47.6853C30.8416 48.2934 29.3213 48.7495 27.801 49.3576C27.3449 49.5097 27.0408 49.5097 26.7368 49.0536C25.2165 47.5333 23.5442 45.861 22.0239 44.3407C21.7198 44.0366 21.5678 43.5805 21.8718 43.1244C22.1759 42.6683 22.784 42.6683 23.2401 43.1244C24.6084 44.4927 25.9766 45.861 27.3449 47.2292C27.649 47.5333 27.801 47.5333 28.105 47.3812C34.7943 45.1008 40.7235 41.4521 45.7405 36.5872C51.6696 30.81 55.6224 23.9687 57.9028 16.2152C59.1191 11.9584 59.7272 7.54952 59.7272 2.98863C59.7272 2.68458 59.5751 2.53255 59.5751 2.22849Z" fill="#1043CF"/>
<path d="M51.2136 20.016C51.2136 25.185 47.1088 29.2898 41.9398 29.2898C36.7708 29.2898 32.666 25.185 32.666 20.016C32.666 14.999 36.7708 10.7422 41.7878 10.7422C47.1088 10.7422 51.2136 14.847 51.2136 20.016ZM49.3893 20.168C49.3893 15.9112 46.0446 12.5665 41.7878 12.5665C37.531 12.5665 34.1863 15.9112 34.1863 20.168C34.1863 24.4248 37.531 27.7695 41.7878 27.7695C46.0446 27.6175 49.3893 24.2728 49.3893 20.168Z" fill="#1043CF"/>
<path d="M27.9534 58.9355C29.0176 58.3273 30.0818 57.5672 30.9939 56.8071C34.0345 54.0705 35.7069 50.7259 36.467 46.7731C36.619 46.165 36.9231 45.8609 37.3792 45.8609C37.9873 45.8609 38.2914 46.317 38.2914 46.9251C38.1393 47.6853 37.9873 48.5975 37.6832 49.3576C36.0109 54.5266 32.9703 58.3273 28.2574 60.9118C27.1932 61.52 26.7371 61.2159 26.5851 60.1517C25.977 56.9591 25.3689 53.6144 24.7607 50.4218C24.7607 50.1178 24.7607 49.8137 24.7607 49.6617C24.9128 49.3576 25.2168 49.2056 25.6729 49.2056C25.977 49.2056 26.281 49.5096 26.4331 49.8137C26.5851 50.7259 26.7371 51.638 27.0412 52.7023C27.1932 54.8307 27.6493 56.8071 27.9534 58.9355Z" fill="#1043CF"/>
<path d="M2.8685 33.8506C3.78067 34.0026 4.69285 34.1546 5.453 34.3067C7.58141 34.7627 9.70982 35.0668 11.6862 35.5229C11.8382 35.5229 11.8382 35.5229 11.9903 35.5229C12.4464 35.6749 12.7504 36.131 12.5984 36.5871C12.4464 37.0432 12.1423 37.3472 11.5342 37.1952C10.3179 36.8912 8.94968 36.7391 7.73344 36.4351C5.75706 35.979 3.78067 35.6749 1.65226 35.2188C1.50023 35.2188 1.50023 35.2188 1.3482 35.2188C0.588054 35.0668 0.436025 34.6107 0.740084 33.8506C1.65226 32.1782 2.71647 30.5059 4.08473 29.1377C6.97329 26.0971 10.47 24.4247 14.4227 23.5126C14.5748 23.5126 14.7268 23.5126 14.7268 23.3605C15.1829 23.2085 15.639 23.5126 15.791 23.9686C15.943 24.4247 15.639 24.8808 15.0309 25.0329C14.1187 25.3369 13.0545 25.4889 12.1423 25.793C8.18953 27.1613 5.14894 29.5937 2.8685 33.0904C3.02053 33.5465 3.02053 33.6985 2.8685 33.8506Z" fill="#1043CF"/>
<path d="M13.6621 47.3813C13.8141 47.2292 13.9662 46.9252 14.1182 46.7732C17.0068 43.8846 19.7433 41.1481 22.6318 38.2595C23.6961 37.1953 24.6082 36.2831 25.6724 35.2189C26.1285 34.7628 26.5846 34.7628 27.0407 35.0669C27.3448 35.3709 27.3448 35.9791 26.8887 36.4352C23.544 39.7798 20.1994 43.2765 16.7027 46.6211C16.2466 47.0772 15.7905 47.6853 15.1824 48.1414C14.8783 48.4455 14.5743 48.4455 14.2702 48.2935C13.8141 48.1414 13.6621 47.8374 13.6621 47.3813Z" fill="#1043CF"/>
<path d="M9.7096 51.334C10.0137 51.486 10.3177 51.638 10.4697 51.9421C10.6218 52.2462 10.4697 52.5502 10.3177 52.8543C10.1657 53.0063 9.86163 53.3104 9.7096 53.6144C7.88525 55.4388 6.06089 57.4152 4.08451 59.2395C3.78045 59.3915 3.62842 59.5436 3.32436 59.5436C3.02031 59.5436 2.71625 59.3915 2.56422 59.0875C2.41219 58.6314 2.41219 58.3273 2.71625 58.0233C3.93248 56.807 5.14872 55.5908 6.36495 54.3746C7.27713 53.4624 8.03728 52.7022 8.94945 51.7901C9.25351 51.638 9.40554 51.486 9.7096 51.334Z" fill="#1043CF"/>
<path d="M8.34117 45.1008C9.10132 45.1008 9.55741 45.8609 9.25335 46.317C9.10132 46.4691 9.10132 46.6211 8.94929 46.7731C6.97291 48.7495 4.99652 50.7259 3.02014 52.7023L2.86811 52.8543C2.41202 53.1584 1.95593 53.3104 1.65187 52.8543C1.34781 52.5502 1.34781 51.9421 1.65187 51.6381C3.17217 50.1178 4.69246 48.5975 6.21276 47.0772C6.82087 46.4691 7.27696 46.013 7.88508 45.5569C8.03711 45.2528 8.34117 45.1008 8.34117 45.1008Z" fill="#1043CF"/>
<path d="M16.8552 53.6146C16.8552 53.7666 16.7032 53.9186 16.5512 54.2227C14.4228 56.3511 12.4464 58.3275 10.318 60.4559C9.86188 60.912 9.40579 60.912 8.9497 60.4559C8.64564 60.1518 8.64564 59.5437 9.10173 59.2396C11.2301 57.1112 13.2065 55.1348 15.3349 53.0064C15.639 52.7024 15.9431 52.5503 16.3991 52.7024C16.7032 52.8544 16.8552 53.0064 16.8552 53.6146Z" fill="#1043CF"/>
</svg>
