<svg width="51" height="61" viewBox="0 0 51 61" fill="none" xmlns="http://www.w3.org/2000/svg">
<path d="M20.5431 42.1525C19.935 42.3046 19.4789 42.4566 19.0228 42.7607C18.4147 41.8485 17.9587 40.7843 17.3505 40.0241C16.2863 38.5038 15.0701 37.1356 14.0059 35.6153C12.3336 33.3348 10.9653 31.0544 10.3572 28.1658C8.98892 21.0205 12.9417 14.0271 19.783 11.2906C28.7527 7.64185 39.0907 13.723 40.459 23.3009C41.0671 27.7097 39.6988 31.3585 37.2664 34.8551C36.2022 36.3754 34.8339 37.8957 33.7697 39.5681C33.0096 40.6323 32.5535 41.6965 31.7933 42.7607C31.4893 43.2168 31.1852 43.6728 30.7291 43.8249C27.2324 45.1931 23.7358 46.4094 20.2391 47.6256C19.783 47.7776 19.4789 47.6256 19.3269 47.3216C19.1749 46.8655 19.1749 46.4094 19.631 46.2573C19.935 46.1053 20.2391 45.9533 20.5431 45.9533C23.5837 44.8891 26.6243 43.8249 29.6649 42.6086C29.969 42.4566 30.273 42.1526 30.425 41.8485C31.6413 39.5681 33.1616 37.7437 34.6819 35.6153C36.2022 33.6389 37.5704 31.8145 38.1786 29.3821C39.6989 24.5171 38.6347 20.2603 35.29 16.6116C31.4893 12.3548 26.6243 10.9865 21.1513 12.6588C15.6782 14.3312 12.6376 18.1319 11.5734 23.757C10.8133 27.7097 12.1815 31.0544 14.462 34.095C15.8302 35.9193 17.1985 37.7437 18.5668 39.5681C19.4789 40.1762 19.935 41.0883 20.5431 42.1525Z" fill="#1043CF"/>
<path d="M19.7832 57.2035C19.6312 57.0515 19.3271 56.8995 19.3271 56.5954C19.3271 56.2914 19.4792 55.9873 19.6312 55.6832C19.6312 55.5312 19.9353 55.5312 20.0873 55.5312C23.4319 54.315 26.9286 53.0987 30.2733 51.8825C31.0334 51.5784 31.3375 51.7305 31.4895 52.1866C31.6415 52.6426 31.3375 53.0987 30.7294 53.4028C27.2327 54.619 23.8881 55.8353 20.3914 57.2035C20.2393 57.0515 20.0873 57.0515 19.7832 57.2035Z" fill="#1043CF"/>
<path d="M19.7832 52.1866C19.6312 52.0346 19.3271 51.8826 19.3271 51.5785C19.3271 51.2745 19.4792 50.9704 19.6312 50.6664C19.6312 50.5143 19.9353 50.5143 20.0873 50.5143C23.4319 49.2981 26.9286 48.0819 30.2733 46.8656C31.0334 46.5616 31.3375 46.7136 31.4895 47.1697C31.6415 47.6258 31.4895 48.0819 30.7294 48.3859C27.2327 49.6021 23.8881 50.9704 20.3914 52.1866C20.2393 52.1866 20.0873 52.1866 19.7832 52.1866Z" fill="#1043CF"/>
<path d="M30.7295 56.4435C29.6653 60.0922 23.7361 62.2206 20.0874 60.2442C23.5841 59.028 27.0808 57.6597 30.7295 56.4435Z" fill="#1043CF"/>
<path d="M26.1687 3.23311C26.1687 3.84123 26.1687 4.44935 26.1687 5.05747C26.1687 5.51356 25.8647 5.81761 25.4086 5.81761C24.9525 5.81761 24.6484 5.51356 24.6484 5.05747C24.6484 3.84123 24.6484 2.62499 24.6484 1.25673C24.6484 0.800641 24.9525 0.496582 25.4086 0.496582C25.8647 0.496582 26.1687 0.800641 26.1687 1.25673C26.1687 1.86485 26.1687 2.62499 26.1687 3.23311Z" fill="#1043CF"/>
<path d="M3.2121 24.5173C3.82022 24.5173 4.42835 24.5173 5.03647 24.5173C5.64459 24.5173 5.94866 24.8213 5.94866 25.2774C5.94866 25.7335 5.64459 26.0376 5.03647 26.0376C3.82023 26.0376 2.60401 26.0376 1.38777 26.0376C0.779654 26.0376 0.475586 25.7335 0.475586 25.2774C0.475586 24.8213 0.779654 24.5173 1.38777 24.5173C1.99589 24.5173 2.60398 24.5173 3.2121 24.5173Z" fill="#1043CF"/>
<path d="M47.6045 26.1896C46.9964 26.1896 46.3883 26.1896 45.7802 26.1896C45.3241 26.1896 45.02 25.8855 45.02 25.4295C45.02 24.9734 45.3241 24.6693 45.7802 24.6693C46.9964 24.6693 48.3647 24.6693 49.5809 24.6693C50.037 24.6693 50.3411 24.9734 50.3411 25.4295C50.3411 25.8855 50.037 26.1896 49.5809 26.1896C48.8208 26.1896 48.2127 26.1896 47.6045 26.1896Z" fill="#1043CF"/>
<path d="M8.07702 7.18588C8.38108 7.33791 8.5331 7.48994 8.68513 7.64197C9.59731 8.55415 10.3575 9.3143 11.2697 10.2265C11.7257 10.6826 11.7257 10.9866 11.2697 11.4427C10.9656 11.7468 10.5095 11.7468 10.0534 11.4427C9.14121 10.5305 8.22906 9.77038 7.46892 8.85821C7.31689 8.70618 7.16485 8.25009 7.31688 7.94603C7.46891 7.48994 7.92499 7.33791 8.07702 7.18588Z" fill="#1043CF"/>
<path d="M39.8513 38.9601C40.1553 39.1121 40.3073 39.2641 40.4594 39.4162C41.3715 40.1763 42.1317 41.0885 43.0439 41.8486C43.5 42.3047 43.5 42.7608 43.1959 43.0649C42.8919 43.3689 42.4357 43.3689 41.9797 42.9129C41.0675 42.0007 40.3074 41.2405 39.3952 40.3284C39.2432 40.1763 39.0911 39.7202 39.2431 39.4162C39.2431 39.2641 39.5472 39.1121 39.8513 38.9601Z" fill="#1043CF"/>
<path d="M43.4995 8.09808C43.3475 8.40214 43.1955 8.55417 43.0434 8.7062C42.1313 9.61838 41.3711 10.3785 40.4589 11.2907C40.1549 11.5948 39.6988 11.7468 39.2427 11.2907C38.9386 10.9866 38.9386 10.5306 39.2427 10.0745C40.1549 9.16229 40.915 8.25011 41.8272 7.48997C41.9792 7.33794 42.4353 7.18591 42.7394 7.33794C43.0434 7.48997 43.1954 7.94605 43.4995 8.09808Z" fill="#1043CF"/>
<path d="M8.07704 43.3689C7.92501 43.2168 7.62097 43.0648 7.46894 42.7608C7.31691 42.6087 7.46894 42.1526 7.46894 42.0006C8.38111 41.0884 9.29328 40.0242 10.3575 39.112C10.6615 38.808 11.1176 38.808 11.4217 39.112C11.7257 39.4161 11.7257 39.8722 11.4217 40.1763C10.5095 41.0884 9.59733 42.0006 8.68515 42.9128C8.53312 43.2168 8.3811 43.3689 8.07704 43.3689Z" fill="#1043CF"/>
</svg>
